<svg width="22" height="22" viewBox="0 0 22 22" fill="none" xmlns="http://www.w3.org/2000/svg">
<g id="&#240;&#159;&#166;&#134; icon &#34;sun&#34;">
<path id="Vector" d="M11 0C10.23 0 9.625 0.605 9.625 1.375C9.625 2.145 10.23 2.75 11 2.75C11.77 2.75 12.375 2.145 12.375 1.375C12.375 0.605 11.77 0 11 0ZM4.125 2.75C3.355 2.75 2.75 3.355 2.75 4.125C2.75 4.895 3.355 5.5 4.125 5.5C4.895 5.5 5.5 4.895 5.5 4.125C5.5 3.355 4.895 2.75 4.125 2.75ZM17.875 2.75C17.105 2.75 16.5 3.355 16.5 4.125C16.5 4.895 17.105 5.5 17.875 5.5C18.645 5.5 19.25 4.895 19.25 4.125C19.25 3.355 18.645 2.75 17.875 2.75ZM11 5.5C7.975 5.5 5.5 7.975 5.5 11C5.5 14.025 7.975 16.5 11 16.5C14.025 16.5 16.5 14.025 16.5 11C16.5 7.975 14.025 5.5 11 5.5ZM1.375 9.625C0.605 9.625 0 10.23 0 11C0 11.77 0.605 12.375 1.375 12.375C2.145 12.375 2.75 11.77 2.75 11C2.75 10.23 2.145 9.625 1.375 9.625ZM20.625 9.625C19.855 9.625 19.25 10.23 19.25 11C19.25 11.77 19.855 12.375 20.625 12.375C21.395 12.375 22 11.77 22 11C22 10.23 21.395 9.625 20.625 9.625ZM4.125 16.5C3.355 16.5 2.75 17.105 2.75 17.875C2.75 18.645 3.355 19.25 4.125 19.25C4.895 19.25 5.5 18.645 5.5 17.875C5.5 17.105 4.895 16.5 4.125 16.5ZM17.875 16.5C17.105 16.5 16.5 17.105 16.5 17.875C16.5 18.645 17.105 19.25 17.875 19.25C18.645 19.25 19.25 18.645 19.25 17.875C19.25 17.105 18.645 16.5 17.875 16.5ZM11 19.25C10.23 19.25 9.625 19.855 9.625 20.625C9.625 21.395 10.23 22 11 22C11.77 22 12.375 21.395 12.375 20.625C12.375 19.855 11.77 19.25 11 19.25Z" fill="black"/>
</g>
</svg>
